<svg x="0px" y="0px" width="22px" height="22px" viewBox="0 0 90.72 90.72" style="enable-background:new 0 0 90.72 90.72;" xml:space="preserve">
    <g>
        <path d="M81.709,36.274c-0.298-1.995-0.802-4.219-1.767-6.389c-0.898-2.222-2.237-4.345-3.778-6.393   c-1.575-1.993-3.392-3.854-5.353-5.479c-1.955-1.597-4.033-3.051-6.119-4.269c-4.189-2.453-8.416-4.21-12.219-5.568   c-1.918-0.682-3.713-1.277-5.398-1.825c-1.696-0.546-3.221-1.046-4.657-1.55c-1.387-0.513-2.699-1.01-3.809-1.561   c-0.576-0.264-1.109-0.544-1.586-0.829c0,0-4.685-2.498-4.389-2.409l0.049,54.335c-1.061-0.15-2.141-0.25-3.252-0.25   c-11.377,0-20.602,8.198-20.602,18.315S18.054,90.72,29.431,90.72c11.377,0,20.602-8.199,20.602-18.316   c0-0.519,0.025-1.53,0.025-1.53V24.117c2.113,1.351,4.229,2.615,6.252,3.822c3.516,2.058,6.688,3.978,9.453,5.868   c1.335,0.974,2.674,1.905,3.814,2.931c1.197,0.995,2.275,2.051,3.275,3.131c0.981,1.085,1.899,2.188,2.67,3.259   c0.205,0.269,0.402,0.528,0.596,0.777c0.162,0.264,0.334,0.52,0.505,0.767c0.34,0.495,0.644,0.965,0.956,1.395   c0.572,0.902,1.023,1.612,1.33,2.097c0.32,0.502,0.523,0.778,0.523,0.778s0.168-0.28,0.424-0.821   c0.229-0.54,0.662-1.351,1.017-2.418c0.17-0.535,0.315-1.132,0.481-1.799c0.193-0.672,0.299-1.396,0.381-2.188   C81.947,40.128,81.945,38.299,81.709,36.274z" fill="#b4b3b3"/>
    </g>
</svg>